<svg xmlns="http://www.w3.org/2000/svg" id="Layer_1" data-name="Layer 1" viewBox="0 0 512 500.19"><g id="Layer_1-2" data-name="Layer_1"><path d="M4.2,341.65a8.92,8.92,0,0,1-4.2-7.5V171.59a8.55,8.55,0,0,1,4.2-7.5L251.65,7.22a9.1,9.1,0,0,1,9.9.3l246,159a9.33,9.33,0,0,1,4.5,7.8V336.55a10.09,10.09,0,0,1-4.5,7.8L254.05,504.52a9,9,0,0,1-10.2,0ZM247.45,172.19v-141L25.5,171.89l107.37,73.18Zm18-140.68V172.19l110.68,71.68L486.21,174Zm-25.2,448.72V339.55L132.57,266.37,25.5,334.45Zm18-140.68V480.83l228-144.28L375.83,265.17ZM494,190.48,392.62,254.67,494,320.06ZM116.38,255.57,18,188.68v129Zm243-1.2L256.45,187.78,149.07,255.87,249.25,324Z" transform="translate(0 -5.9)"></path></g></svg>