<svg xmlns="http://www.w3.org/2000/svg" id="Layer_1" data-name="Layer 1" viewBox="0 0 512 498.29"><path d="M163.32,402.62a53.46,53.46,0,1,0,53.45,53.45A53.45,53.45,0,0,0,163.32,402.62Zm0,83.15A29.7,29.7,0,1,1,193,456.08,29.7,29.7,0,0,1,163.32,485.77Z" transform="translate(0.01 -11.23)"></path><path d="M389,402.62a53.46,53.46,0,1,0,53.45,53.45A53.46,53.46,0,0,0,389,402.62Zm0,83.15a29.7,29.7,0,1,1,29.69-29.69A29.7,29.7,0,0,1,389,485.77Z" transform="translate(0.01 -11.23)"></path><path d="M509.57,90.82a14.82,14.82,0,0,0-9.5-4.75L113.43,80.72,102.74,48.06A54.65,54.65,0,0,0,51.66,11.23H11.87a11.88,11.88,0,0,0,0,23.76H51.66A30.88,30.88,0,0,1,80.17,55.78L155.6,283.25l-5.94,13.66A57,57,0,0,0,155,348.58a55.21,55.21,0,0,0,44.54,24.94h231a11.88,11.88,0,1,0,0-23.76h-231a30.3,30.3,0,0,1-25-14.25,32.68,32.68,0,0,1-3-28.51l4.76-10.69,250-26.13a65.35,65.35,0,0,0,56.43-49.89l28.5-119.38A10.07,10.07,0,0,0,509.57,90.82ZM459.68,215a40.38,40.38,0,0,1-36.23,31.47L176.39,272,121.15,104.48l364.07,5.34Z" transform="translate(0.01 -11.23)"></path></svg>