<svg xmlns="http://www.w3.org/2000/svg" id="Layer_1" data-name="Layer 1" viewBox="0 0 512 512"><path d="M256,512C114.9,512,0,397.1,0,256S114.9,0,256,0,512,114.9,512,256,397.1,512,256,512Zm0-487.62C128.3,24.38,24.38,128.3,24.38,256S128.3,487.62,256,487.62,487.62,383.7,487.62,256,383.7,24.38,256,24.38Z" transform="translate(0 0)"></path><path d="M170.67,121.91H329.14v24.38H170.67Z" transform="translate(0 0)"></path><path d="M44.8,121.91H146.29v24.38H44.8Z" transform="translate(0 0)"></path><path d="M343.16,474.34l132-303.51,22.36,9.72-132,303.52Z" transform="translate(0 0)"></path><path d="M168.76,482.88l81.3-187,22.36,9.73-81.3,187Z" transform="translate(0 0)"></path><path d="M189.83,138.45l23-8.22L339.83,485l-22.95,8.22Z" transform="translate(0 0)"></path><path d="M18.08,169.57l23-8.22L150.18,466.18l-23,8.22Z" transform="translate(0 0)"></path><path d="M92.26,138.43l23-8.22,103.72,289.7L196,428.13Z" transform="translate(0 0)"></path><path d="M275.09,138.49l23-8.22L396.27,404.6l-22.95,8.22Z" transform="translate(0 0)"></path><path d="M446.33,298.21l-22.41-9.75c1.83-4.27,2.75-10.06,2.75-17.83a53.35,53.35,0,0,0-5.49-24.38l-35.81-69.18a67.06,67.06,0,0,1,49.22-96.92l3.81,24.08a43,43,0,0,0-36.11,42.06,41.92,41.92,0,0,0,4.72,19.5L442.82,235a77.73,77.73,0,0,1,8.23,35.51C451.05,281.91,449.52,290.59,446.33,298.21Z" transform="translate(0 0)"></path></svg>