<svg xmlns="http://www.w3.org/2000/svg" id="Layer_1" data-name="Layer 1" viewBox="0 0 484.8 512"><path d="M487,492H465.07V173.54a26.92,26.92,0,0,0-26.89-26.89h-49a26.91,26.91,0,0,0-26.88,26.89V492H306.59V317.83a26.91,26.91,0,0,0-26.88-26.89h-49a26.91,26.91,0,0,0-26.88,26.89V492H148.11V401.8a26.92,26.92,0,0,0-26.89-26.89h-49A26.91,26.91,0,0,0,45.32,401.8V492H22.2a10,10,0,0,0,0,20H487a10,10,0,0,0,0-20Zm-358.9,0H65.32V401.8a6.89,6.89,0,0,1,6.88-6.89h49a6.89,6.89,0,0,1,6.88,6.89V492Zm158.49,0H223.8V317.83a6.89,6.89,0,0,1,6.88-6.89h49a6.9,6.9,0,0,1,6.89,6.89Zm158.48,0H382.28V173.54a6.89,6.89,0,0,1,6.88-6.89h49a6.9,6.9,0,0,1,6.89,6.89V492Z" transform="translate(-12.2 0)"></path><path d="M465,10.52A10,10,0,0,0,454.55,0l-.48,0h-60.5a10,10,0,0,0,0,20h37.35l-98.85,98.86L294.79,81.58a10,10,0,0,0-14.15,0L100.88,261.35A10,10,0,1,0,115,275.49l172.7-172.7L325,140.07a10,10,0,0,0,14.14,0L445.07,34.14V68a10,10,0,0,0,20,0V11C465.07,10.84,465.05,10.68,465,10.52Z" transform="translate(-12.2 0)"></path><circle cx="62.04" cy="303.31" r="10"></circle></svg>