<svg xmlns="http://www.w3.org/2000/svg" id="Layer_1" data-name="Layer 1" viewBox="0 0 512 453.72"><path d="M492,29.14H87.41a20,20,0,0,0-20,20V96.57H20a19.72,19.72,0,0,0-20,20V462.88a20,20,0,0,0,20,20H424.59a20,20,0,0,0,20-20V415.43H492a20,20,0,0,0,20-20V49.12a19.72,19.72,0,0,0-20-20ZM87.41,45.79H492a3.29,3.29,0,0,1,3.33,3.33v57.44H84.08V49.12a3.29,3.29,0,0,1,3.33-3.33ZM20,113.22H67.43V174H16.65V116.55A3.29,3.29,0,0,1,20,113.22ZM427.92,462.88a3.28,3.28,0,0,1-3.33,3.33H20a3.29,3.29,0,0,1-3.33-3.33V190.65H67.43v204.8a20,20,0,0,0,20,20H427.92Zm64.1-64.1H87.41a3.29,3.29,0,0,1-3.33-3.33V123.21H495.35V395.45a3.29,3.29,0,0,1-3.33,3.33Z" transform="translate(0 -29.14)"></path><path d="M154.43,82.84h-30.8a8.33,8.33,0,1,1,0-16.65h30.8a8.33,8.33,0,1,1,0,16.65Z" transform="translate(0 -29.14)"></path><path d="M224.78,82.84H194a8.33,8.33,0,1,1,0-16.65h30.8a8.33,8.33,0,1,1,0,16.65Z" transform="translate(0 -29.14)"></path><path d="M161.93,261.83,241,302.62V286.8l-60.77-30.38L241,226V210.21l-79.08,40.38Z" transform="translate(0 -29.14)"></path><path d="M258.5,307.62h15L320.1,186.9H304.7Z" transform="translate(0 -29.14)"></path><path d="M337.17,210.21V226l61.19,30.39L337.17,286.8v15.82l79.09-40.79V250.59Z" transform="translate(0 -29.14)"></path></svg>