<svg xmlns="http://www.w3.org/2000/svg" id="Layer_1" data-name="Layer 1" viewBox="0 0 512 512"><path d="M482,0H30A30,30,0,0,0,0,30V430a30,30,0,0,0,30,30H226.5l28.3,28.31a10,10,0,0,0,14.15,0l9.56-9.57A113.71,113.71,0,0,0,302,488.48V502a10,10,0,0,0,10,10h44a10,10,0,0,0,10-10V488.48a113.94,113.94,0,0,0,23.49-9.74l9.56,9.57a10,10,0,0,0,14.15,0L441.5,460H482a30,30,0,0,0,30-30V315a10,10,0,0,0-20,0V430a10,10,0,0,1-10,10H441.25l-6.51-6.51A113.94,113.94,0,0,0,444.48,410H458a10,10,0,0,0,10-10V356a10,10,0,0,0-10-10H444.48a113.94,113.94,0,0,0-9.74-23.49l9.57-9.56a10,10,0,0,0,0-14.15L413.2,267.69a10,10,0,0,0-14.15,0l-9.56,9.57A113.94,113.94,0,0,0,366,267.52V254a10,10,0,0,0-10-10H312a10,10,0,0,0-10,10v13.52a113.71,113.71,0,0,0-23.49,9.74L269,267.69a10,10,0,0,0-14.15,0l-31.11,31.12a10,10,0,0,0,0,14.14l9.57,9.56A113.94,113.94,0,0,0,223.52,346H210a10,10,0,0,0-10,10v44a10,10,0,0,0,10,10h13.52a113.71,113.71,0,0,0,9.74,23.49L226.75,440H30a10,10,0,0,1-10-10V100H492V225a10,10,0,0,0,20,0V30A30,30,0,0,0,482,0ZM231.32,390H220V366h11.32a10,10,0,0,0,9.78-7.92,94.29,94.29,0,0,1,13.13-31.69,10,10,0,0,0-1.32-12.51l-8-8,17-17,8,8a10,10,0,0,0,12.51,1.32,94.26,94.26,0,0,1,31.7-13.13,10,10,0,0,0,7.91-9.78V264h24v11.32a10,10,0,0,0,7.91,9.78,94.26,94.26,0,0,1,31.7,13.13,10,10,0,0,0,12.51-1.32l8-8,17,17-8,8a10,10,0,0,0-1.32,12.51,94.09,94.09,0,0,1,13.13,31.69,10,10,0,0,0,9.78,7.92H448v24H436.68a10,10,0,0,0-9.78,7.92,94.09,94.09,0,0,1-13.13,31.69,10,10,0,0,0,1.32,12.51l8,8-17,17-8-8a10,10,0,0,0-12.51-1.32,94.26,94.26,0,0,1-31.7,13.13,10,10,0,0,0-7.91,9.78V492H322V480.68a10,10,0,0,0-7.91-9.78,94.26,94.26,0,0,1-31.7-13.13,10,10,0,0,0-12.51,1.32l-8,8-17-17,8-8a10,10,0,0,0,1.32-12.51,94.29,94.29,0,0,1-13.13-31.69,10,10,0,0,0-9.78-7.92ZM20,80V30A10,10,0,0,1,30,20H482a10,10,0,0,1,10,10V80Z"></path><path d="M448,40H232a10,10,0,0,0,0,20H448a10,10,0,0,0,0-20Z"></path><path d="M108,40a10,10,0,1,0,7.07,2.93A10.08,10.08,0,0,0,108,40Z"></path><path d="M64,40a10,10,0,1,0,7.07,2.93A10.08,10.08,0,0,0,64,40Z"></path><path d="M152,40a10,10,0,1,0,7.07,2.93A10.08,10.08,0,0,0,152,40Z"></path><path d="M334,443.17A65.17,65.17,0,1,0,268.83,378,65.25,65.25,0,0,0,334,443.17Zm0-110.34A45.17,45.17,0,1,1,288.83,378,45.22,45.22,0,0,1,334,332.83Z"></path><path d="M288.46,170h23.8a10,10,0,0,0,0-20h-23.8a10,10,0,0,0,0,20Z"></path><path d="M448,150H361.5a10,10,0,0,0,0,20H448a10,10,0,0,0,0-20Z"></path><path d="M288.46,218H390.1a10,10,0,0,0,0-20H288.46a10,10,0,0,0,0,20Z"></path><path d="M448,198H431.28a10,10,0,0,0,0,20H448a10,10,0,0,0,0-20Z"></path><path d="M64,366h0a10,10,0,1,0-10-10A10,10,0,0,0,64,366Z"></path><path d="M168.3,356a10,10,0,0,0-10-10H109.05a10,10,0,0,0,0,20H158.3A10,10,0,0,0,168.3,356Z"></path><path d="M64,414h59.67a10,10,0,0,0,0-20H64a10,10,0,0,0,0,20Z"></path><path d="M226.85,186.41l-22.27-38.57a10,10,0,0,0-13.66-3.66l-10.41,6a77.64,77.64,0,0,0-13.93-8.06v-12a10,10,0,0,0-10-10H112a10,10,0,0,0-10,10v12a78,78,0,0,0-13.93,8.06l-10.4-6A10,10,0,0,0,64,147.84L41.76,186.41a10,10,0,0,0,3.66,13.66l10.41,6a79.13,79.13,0,0,0,0,16.09l-10.41,6a10,10,0,0,0-3.66,13.66L64,280.41a10,10,0,0,0,13.66,3.66l10.4-6A78.19,78.19,0,0,0,102,286.12v12a10,10,0,0,0,10,10h44.55a10,10,0,0,0,10-10v-12a78.19,78.19,0,0,0,13.93-8.05l10.41,6a10,10,0,0,0,13.66-3.66l22.27-38.58a10,10,0,0,0-3.66-13.66l-10.41-6a79,79,0,0,0,0-16.08l10.41-6a10,10,0,0,0,3.66-13.66Zm-34.76,16.33a59.47,59.47,0,0,1,0,22.77,10,10,0,0,0,4.81,10.59l7.63,4.4-12.27,21.25-7.64-4.4A10,10,0,0,0,173,258.48a58.6,58.6,0,0,1-19.69,11.39,10,10,0,0,0-6.77,9.46v8.8H122v-8.8a10,10,0,0,0-6.77-9.46,58.6,58.6,0,0,1-19.69-11.39A10,10,0,0,0,84,257.35l-7.64,4.4L64.08,240.5l7.63-4.4a10,10,0,0,0,4.81-10.59,59.47,59.47,0,0,1,0-22.77,10,10,0,0,0-4.81-10.58l-7.63-4.41L76.35,166.5,84,170.9a10,10,0,0,0,11.58-1.13,58.6,58.6,0,0,1,19.69-11.39,10,10,0,0,0,6.77-9.46v-8.79h24.55v8.79a10,10,0,0,0,6.77,9.46A58.77,58.77,0,0,1,173,169.77a10,10,0,0,0,11.58,1.14l7.64-4.41,12.27,21.25-7.63,4.41a10,10,0,0,0-4.81,10.58Z"></path><path d="M134.3,180.12a34,34,0,1,0,34,34A34,34,0,0,0,134.3,180.12Zm0,48a14,14,0,1,1,14-14A14,14,0,0,1,134.3,228.12Z"></path><path d="M502,260a10,10,0,1,0,7.07,2.93A10.08,10.08,0,0,0,502,260Z"></path></svg>