<svg id="Layer_1" data-name="Layer 1" xmlns="http://www.w3.org/2000/svg" viewBox="0 0 395.4 132.29"><path id="text-0" d="M799,429.72,761.22,553.93H735.49L697.7,429.72h16.91l32.54,112h2.33l32.66-112Zm33.59,29.35v94.86H816.81V459.07Zm-7.86-15.55h0c-3.23,0-5.66-.85-7.26-2.57a10,10,0,0,1-2.38-7.07h0v-.47q0-4.59,2.38-7.11c1.6-1.69,4-2.53,7.26-2.53h0c3.24,0,5.67.84,7.27,2.53s2.45,4.05,2.45,7.11h0v.47c0,3.06-.81,5.43-2.45,7.11S827.94,443.52,824.7,443.52Zm63.57,112.55h0a72.32,72.32,0,0,1-20.06-2.49,79.29,79.29,0,0,1-14.15-5.41h0l-1.48-14.57A100.1,100.1,0,0,0,868.17,540a63.45,63.45,0,0,0,19.32,2.72h0q11,0,16.52-3.5t5.52-10.38h0v-1.09a12.3,12.3,0,0,0-2.1-7.38q-2.05-2.93-7.5-5.13a97.61,97.61,0,0,0-15.47-4.47h0q-11.94-2.65-18.86-6.19t-9.87-8.78a25.81,25.81,0,0,1-3-12.83h0v-.89q0-12.45,8.63-18.86t26.09-6.41h0a66.23,66.23,0,0,1,19.36,2.52A64.6,64.6,0,0,1,920.34,465h0l1.44,13.33a66,66,0,0,0-14.46-6.14,65.23,65.23,0,0,0-18.39-2.41h0a39.07,39.07,0,0,0-12,1.52,12.6,12.6,0,0,0-6.57,4.27,10.83,10.83,0,0,0-2.06,6.65h0V483a12.35,12.35,0,0,0,2.06,7.23q2,3,7.31,5.17a91.41,91.41,0,0,0,14.74,4.2h0q12.17,2.44,19.28,5.83T922,514q3.1,5.18,3.11,13.34h0v1.67q0,13.41-9.33,20.21T888.27,556.07Zm90.54-.2h0q-11,0-17.69-3.3a20.14,20.14,0,0,1-9.72-10q-3-6.69-3-16.72h0V466H964v58q0,9.33,4.27,13.77t14.39,4.39h0a48.34,48.34,0,0,0,11-1.25,47,47,0,0,0,10-3.61h0l-1.48,13.53a44.73,44.73,0,0,1-10.69,3.69A57.71,57.71,0,0,1,978.81,555.87Zm23.83-95.44-1.48,12.64h-68.3V460.43ZM964.23,433.3,963.57,462H948.48l-.07-26.63Zm128.87,59.2v61.43h-15.63l.66-23.06-.58-2.41V498.22l.12-5.52q0-11.58-5.91-17.11T1053.18,470h0a57.59,57.59,0,0,0-18.74,2.92,81,81,0,0,0-15.09,6.84h0l1.44-13.45a72.54,72.54,0,0,1,8.79-4.39,64.28,64.28,0,0,1,11.66-3.66,66.28,66.28,0,0,1,14.46-1.47h0A53.35,53.35,0,0,1,1073,459.3a27.23,27.23,0,0,1,18,18.43,50.34,50.34,0,0,1,2,14.77ZM1044.82,556h0q-14.11,0-21.66-6.88t-7.5-19.6h0v-2.8q0-13.14,8.09-19.59t25.81-9h0l30-4.28.86,11.47-29,4.16q-10.87,1.56-15.55,5.33t-4.66,11h0v1.56q0,7.5,4.63,11.46t13.84,4h0a31.73,31.73,0,0,0,14-2.84,25.37,25.37,0,0,0,9.45-7.58,27.12,27.12,0,0,0,4.86-10.58h0l2.41,10.7h-3a31.23,31.23,0,0,1-5.13,11.54,26.46,26.46,0,0,1-10.42,8.63Q1055.2,556,1044.82,556Z" transform="translate(-697.7 -423.77)"/></svg>